<svg id="Capa_1" enable-background="new 0 0 512 512" height="512" viewBox="0 0 512 512" width="512" xmlns="http://www.w3.org/2000/svg" xmlns:xlink="http://www.w3.org/1999/xlink"><linearGradient id="SVGID_1_" gradientUnits="userSpaceOnUse" x1="256.235" x2="256.235" y1="512" y2="0"><stop offset="0" stop-color="#5558ff"/><stop offset="1" stop-color="#00c0ff"/></linearGradient><linearGradient id="SVGID_2_" gradientUnits="userSpaceOnUse" x1="241.5" x2="241.5" y1="421" y2="61"><stop offset="0" stop-color="#addcff"/><stop offset=".5028" stop-color="#eaf6ff"/><stop offset="1" stop-color="#eaf6ff"/></linearGradient><g><g><g><path d="m460.211 10.649c-1.919-6.328-7.749-10.649-14.356-10.649h-358.999c-5.01 0-9.697 2.505-12.48 6.68-10.82 16.219-17.816 35.367-21.061 54.32l48.541 15-50.242 15c.496 10.831 1.979 20.861 4.589 30l45.654 15-32.54 15c12.523 21.031 30.007 38.441 48.199 56.25 41.704 40.84 88.989 87.129 88.989 198.574 0 29.077-4.673 58.817-13.872 86.43-2.109 6.313.19 13.242 5.64 17.051 5.563 3.865 12.845 3.488 17.958-.586l16.817-13.242c52.412-40.884 106.597-84.159 106.597-174.848 0-7.209-.37-13.674-.985-19.629l-26.803-15 20.792-15c-1.452-4.958-2.985-9.714-4.532-14.355-1.714-5.134-3.314-10.302-4.794-15.645l-41.466-15 36.713-15c-.159-2.915-.443-5.579-.443-8.818 0-84.624 49.902-118.656 114.341-160.478 7.178-4.673 14.443-9.375 21.709-14.224 5.492-3.662 7.953-10.502 6.034-16.831z" fill="url(#SVGID_1_)"/></g></g><g><g><path d="m176.856 121h-120.653c3.127 10.957 7.65 20.825 13.114 30h107.54c8.291 0 15-6.709 15-15s-6.71-15-15.001-15zm75-45c0-8.291-6.709-15-15-15h-183.541c-1.315 7.681-2.171 15.458-2.171 23.35 0 2.344.366 4.391.471 6.65h185.242c8.29 0 14.999-6.709 14.999-15zm-124.394 289.395c-5.859-5.859-15.352-5.859-21.211 0s-5.859 15.352 0 21.211l30 30c5.86 5.859 15.352 5.859 21.211 0s5.859-15.352 0-21.211zm191.107-154.395h-81.713c-8.291 0-15 6.709-15 15s6.709 15 15 15h86.466c-2.373-8.575-4.11-18.204-4.753-30zm108.893-55.605c-5.859-5.859-15.352-5.859-21.211 0l-30 30c-5.859 5.859-5.859 15.352 0 21.211s15.352 5.859 21.211 0l30-30c5.859-5.86 5.859-15.352 0-21.211zm-160.606 115.605c-8.291 0-15 6.709-15 15s6.709 15 15 15h71.803c-1.21-11.693-3.448-21.251-6.011-30z" fill="url(#SVGID_2_)"/></g></g></g></svg>